<svg width="743" height="161" viewBox="0 0 743 161" fill="none" xmlns="http://www.w3.org/2000/svg">
<path d="M236.414 125.733V95.242L210.067 42.5172V36.8H220.22L242.198 83.1724H242.841L264.176 36.8H274.329V42.5172L247.982 95.242V125.733H236.414Z" fill="#3C79F5"/>
<path d="M293.415 125.733V36.8H348.038V44.4229L344.825 47.5991H304.982V74.9143H335.828V85.7134H304.982V114.934H348.038V125.733H293.415Z" fill="#3C79F5"/>
<path d="M369.022 125.733V36.8H381.232L422.36 106.041H423.003L421.717 90.16V36.8H433.285V125.733H421.075L379.947 56.4924H379.304L380.589 72.3734V125.733H369.022Z" fill="#3C79F5"/>
<path d="M461.322 125.733V36.8H505.021C510.847 36.8 515.517 38.5364 519.03 42.009C522.543 45.4816 524.299 50.0977 524.299 55.8572V106.676C524.299 112.436 522.543 117.052 519.03 120.524C515.517 123.997 510.847 125.733 505.021 125.733H461.322ZM472.889 114.934H502.45C509.305 114.934 512.732 111.335 512.732 104.135V58.3981C512.732 51.1988 509.305 47.5991 502.45 47.5991H472.889V114.934Z" fill="#3C79F5"/>
<path d="M550.484 125.733V36.8H562.052V125.733H550.484Z" fill="#3C79F5"/>
<path d="M590.069 125.733V36.8H602.279L643.407 106.041H644.05L642.764 90.16V36.8H654.332V125.733H642.122L600.994 56.4924H600.351L601.636 72.3734V125.733H590.069Z" fill="#3C79F5"/>
<path d="M680.441 106.676V55.8572C680.441 50.0977 682.198 45.4816 685.711 42.009C689.224 38.5364 693.894 36.8 699.72 36.8H738.278V44.4229L735.064 47.5991H702.291C695.436 47.5991 692.009 51.1988 692.009 58.3981V104.135C692.009 111.335 695.436 114.934 702.291 114.934H730.566V77.4553H742.133V125.733H699.72C693.894 125.733 689.224 123.997 685.711 120.524C682.198 117.052 680.441 112.436 680.441 106.676Z" fill="#3C79F5"/>
<path d="M236.414 125.733V95.242L210.067 42.5172V36.8H220.22L242.198 83.1724H242.841L264.176 36.8H274.329V42.5172L247.982 95.242V125.733H236.414Z" stroke="#3C79F5" stroke-width="1.5"/>
<path d="M293.415 125.733V36.8H348.038V44.4229L344.825 47.5991H304.982V74.9143H335.828V85.7134H304.982V114.934H348.038V125.733H293.415Z" stroke="#3C79F5" stroke-width="1.5"/>
<path d="M369.022 125.733V36.8H381.232L422.36 106.041H423.003L421.717 90.16V36.8H433.285V125.733H421.075L379.947 56.4924H379.304L380.589 72.3734V125.733H369.022Z" stroke="#3C79F5" stroke-width="1.5"/>
<path d="M461.322 125.733V36.8H505.021C510.847 36.8 515.517 38.5364 519.03 42.009C522.543 45.4816 524.299 50.0977 524.299 55.8572V106.676C524.299 112.436 522.543 117.052 519.03 120.524C515.517 123.997 510.847 125.733 505.021 125.733H461.322ZM472.889 114.934H502.45C509.305 114.934 512.732 111.335 512.732 104.135V58.3981C512.732 51.1988 509.305 47.5991 502.45 47.5991H472.889V114.934Z" stroke="#3C79F5" stroke-width="1.5"/>
<path d="M550.484 125.733V36.8H562.052V125.733H550.484Z" stroke="#3C79F5" stroke-width="1.5"/>
<path d="M590.069 125.733V36.8H602.279L643.407 106.041H644.05L642.764 90.16V36.8H654.332V125.733H642.122L600.994 56.4924H600.351L601.636 72.3734V125.733H590.069Z" stroke="#3C79F5" stroke-width="1.5"/>
<path d="M680.441 106.676V55.8572C680.441 50.0977 682.198 45.4816 685.711 42.009C689.224 38.5364 693.894 36.8 699.72 36.8H738.278V44.4229L735.064 47.5991H702.291C695.436 47.5991 692.009 51.1988 692.009 58.3981V104.135C692.009 111.335 695.436 114.934 702.291 114.934H730.566V77.4553H742.133V125.733H699.72C693.894 125.733 689.224 123.997 685.711 120.524C682.198 117.052 680.441 112.436 680.441 106.676Z" stroke="#3C79F5" stroke-width="1.5"/>
<path d="M145.882 71.6435C146.833 64.7145 146.163 57.6584 143.926 51.0344C139.781 38.9333 118.305 22.9878 118.305 22.9878C118.305 22.9878 123.331 13.8468 132.548 20.3441C144.834 29.0104 149.165 59.44 150.166 67.6688C150.179 67.7446 150.218 67.8134 150.277 67.8629C150.335 67.9125 150.41 67.9397 150.486 67.9397C150.563 67.9397 150.637 67.9125 150.695 67.8629C150.754 67.8134 150.793 67.7446 150.806 67.6688C152.086 60.5012 155.007 36.1407 140.513 16.1925C126.521 -3.07618 106.965 23.3508 106.965 23.3508L105.843 24.6726L105.389 23.7418C105.389 23.7418 101.021 15.1034 85.1278 15.1313C72.1461 14.8614 61.4177 19.3388 51.8854 23.509C51.8854 23.509 43.6884 -5.18921 81.5579 9.36005C77.005 5.74833 65.2102 -0.637331 57.2265 0.0515013C33.5626 2.07146 45.8489 32.5383 45.8489 32.5383C37.3975 35.5379 30.4232 41.6924 26.3763 49.7219C20.9889 60.7246 20.2935 72.6489 19.7742 76.7632C19.6537 77.7112 19.5886 78.6654 19.5795 79.621C19.5795 79.621 8.1463 79.4813 9.37957 68.2459C11.0765 53.2685 35.5655 34.9027 42.3438 30.0809C42.4083 30.0363 42.4545 29.9699 42.474 29.8938C42.4935 29.8177 42.485 29.7371 42.45 29.6669C42.415 29.5966 42.3559 29.5415 42.2836 29.5115C42.2112 29.4815 42.1306 29.4787 42.0564 29.5037C35.1761 31.8123 12.4859 40.9067 1.97998 63.2286C-8.21994 84.7872 24.3085 89.367 24.3085 89.367C23.3574 96.2954 24.024 103.351 26.2558 109.976C30.4007 122.077 51.8761 138.014 51.8761 138.014C51.8761 138.014 46.8504 147.164 37.6426 140.666C25.3564 132 21.026 101.617 20.0246 93.3325C20.0117 93.2567 19.9725 93.1879 19.9139 93.1383C19.8554 93.0887 19.7813 93.0616 19.7047 93.0616C19.6281 93.0616 19.5539 93.0887 19.4954 93.1383C19.4368 93.1879 19.3977 93.2567 19.3848 93.3325C18.1051 100.5 15.1935 124.861 29.6774 144.809C43.6698 164.077 63.2351 137.65 63.2351 137.65L64.3478 136.329L64.8115 137.26C64.8115 137.26 69.1789 145.898 85.0722 145.87C98.0539 146.14 108.773 141.653 118.305 137.492C118.305 137.492 126.512 166.19 88.6329 151.641C93.1951 155.253 104.981 161.629 112.964 160.95C136.628 158.939 124.351 128.472 124.351 128.472C132.806 125.474 139.782 119.315 143.824 111.279C149.22 100.286 149.907 88.3524 150.426 84.238C150.547 83.2932 150.612 82.3421 150.621 81.3896C150.621 81.3896 162.054 81.5199 160.82 92.7554C159.124 107.733 134.635 126.099 127.856 130.92C127.792 130.965 127.746 131.031 127.726 131.107C127.707 131.184 127.715 131.264 127.75 131.334C127.785 131.405 127.844 131.46 127.917 131.49C127.989 131.52 128.069 131.523 128.144 131.498C135.024 129.189 157.723 120.095 168.229 97.7726C178.401 76.2234 145.882 71.6435 145.882 71.6435ZM115.95 26.5157C115.95 26.5157 135.692 45.2724 138.492 59.5797C140.068 67.6223 135.321 70.7499 130.87 71.867C127.726 72.6861 119.103 71.2061 115.969 70.3869L105.546 67.6688C106.594 41.819 115.95 26.5157 115.95 26.5157ZM22.964 79.9282C22.964 79.9282 29.4549 53.4267 40.4708 43.9227C43.1784 41.5862 45.6635 40.7671 47.8889 40.8695C49.1069 40.9265 50.2987 41.2439 51.3847 41.8003C52.1821 42.2125 52.9315 42.712 53.6194 43.2897C54.0686 43.665 54.4988 44.0626 54.9083 44.4812C55.2306 44.8341 55.5222 45.214 55.7799 45.6168C56.0766 46.073 56.3826 46.5943 56.7072 47.1714C56.8555 47.46 57.0132 47.7578 57.1615 48.1022C57.4026 48.5956 57.6437 49.1076 57.8755 49.6381L58.1815 50.3456C59.1907 52.7158 60.0698 55.1396 60.815 57.6063L61.0004 58.2486L63.7822 68.6834C61.6402 69.8005 59.5353 70.7965 57.4861 71.6994C54.7507 72.9002 52.1172 73.9335 49.6043 74.8085C48.3433 75.246 47.1193 75.6555 45.8953 76.0186C45.2925 76.2047 44.7084 76.3816 44.1335 76.5398C42.9744 76.875 41.8524 77.1821 40.7675 77.4707C39.6826 77.7593 38.6441 77.9827 37.6426 78.1968C32.8289 79.3188 27.9057 79.8995 22.964 79.9282ZM54.2314 134.569C54.2314 134.569 34.4806 115.813 31.6896 101.515C30.1132 93.4628 34.8608 90.3444 39.3117 89.2181C42.4458 88.3989 51.0694 89.8883 54.2128 90.6981L64.6353 93.4069C63.5875 119.275 54.2314 134.569 54.2314 134.569ZM54.6487 25.7803C54.6487 25.7803 73.639 20.1114 85.0908 21.4891C88.1278 21.7835 91.1086 22.5042 93.9461 23.6301C101.652 26.3668 101.884 32.0077 100.604 36.4758C100.373 37.2034 100.062 37.9028 99.6766 38.561C99.3706 39.0823 99.0276 39.6315 98.6381 40.2086C98.2486 40.7857 97.8314 41.3722 97.3956 41.9586C96.9598 42.545 96.4683 43.1408 96.0418 43.7179C94.7024 45.4146 93.2788 47.0426 91.7764 48.5956L85.1093 55.3071L84.6642 55.7166C63.0033 41.6514 54.6487 25.7803 54.6487 25.7803ZM93.1858 84.9455L85.1093 89.9255L77.2646 85.6622L77.0143 76.1582L85.0815 71.1874L92.9169 75.4507L93.1858 84.9455ZM85.0908 139.605C82.0508 139.311 79.0668 138.59 76.2261 137.464C68.5298 134.728 68.298 129.087 69.5684 124.618C69.7943 123.889 70.1056 123.189 70.4956 122.533C70.7923 122.012 71.1447 121.454 71.5249 120.886C71.905 120.318 72.3316 119.722 72.7674 119.126C73.2032 118.531 73.6947 117.944 74.1305 117.367C75.4692 115.673 76.8929 114.048 78.3959 112.499L85.063 105.787L85.4988 105.378C107.141 119.443 115.496 135.314 115.496 135.314C115.496 135.314 96.5332 140.983 85.0908 139.605ZM129.701 117.172C126.994 119.508 124.509 120.318 122.283 120.216C121.065 120.159 119.874 119.841 118.788 119.285C117.992 118.87 117.242 118.371 116.553 117.795C116.104 117.419 115.677 117.018 115.273 116.595C114.929 116.25 114.619 115.872 114.346 115.468C114.049 115.012 113.743 114.481 113.419 113.904C113.27 113.625 113.122 113.318 112.964 112.974C112.723 112.48 112.491 111.959 112.25 111.428L111.944 110.73C110.939 108.358 110.06 105.935 109.311 103.469C109.246 103.237 109.181 103.023 109.135 102.818L106.353 92.3923C108.504 91.2753 110.609 90.2793 112.658 89.3763C115.384 88.1662 118.027 87.1423 120.54 86.258C121.776 85.8174 123.013 85.4171 124.249 85.0572L126.011 84.5266C127.161 84.1915 128.283 83.8936 129.368 83.5957C130.453 83.2978 131.5 83.0837 132.502 82.8696C137.315 81.7406 142.238 81.1536 147.18 81.1197C147.18 81.1197 140.717 107.696 129.701 117.172Z" fill="#3C79F5"/>
</svg>
