<svg width="584" height="226" viewBox="0 0 584 226" fill="none" xmlns="http://www.w3.org/2000/svg">
<g clip-path="url(#clip0_65_371)">
<rect x="-47" y="-41" width="678" height="441" fill="white"/>
<path d="M269.835 131V117.286L258 93.5714V91H262.561L272.433 111.857H272.722L282.305 91H286.866V93.5714L275.031 117.286V131H269.835Z" fill="#3C79F5"/>
<path d="M295.439 131V91H319.976V94.4286L318.532 95.8571H300.635V108.143H314.491V113H300.635V126.143H319.976V131H295.439Z" fill="#3C79F5"/>
<path d="M329.401 131V91H334.886L353.36 122.143H353.649L353.072 115V91H358.268V131H352.783L334.309 99.8571H334.02L334.597 107V131H329.401Z" fill="#3C79F5"/>
<path d="M370.862 131V91H390.491C393.108 91 395.206 91.781 396.784 93.3429C398.362 94.9048 399.151 96.981 399.151 99.5714V122.429C399.151 125.019 398.362 127.095 396.784 128.657C395.206 130.219 393.108 131 390.491 131H370.862ZM376.058 126.143H389.336C392.415 126.143 393.955 124.524 393.955 121.286V100.714C393.955 97.4762 392.415 95.8571 389.336 95.8571H376.058V126.143Z" fill="#3C79F5"/>
<path d="M410.913 131V91H416.109V131H410.913Z" fill="#3C79F5"/>
<path d="M428.694 131V91H434.179L452.653 122.143H452.942L452.364 115V91H457.56V131H452.076L433.601 99.8571H433.313L433.89 107V131H428.694Z" fill="#3C79F5"/>
<path d="M469.288 122.429V99.5714C469.288 96.981 470.077 94.9048 471.655 93.3429C473.233 91.781 475.331 91 477.948 91H495.268V94.4286L493.825 95.8571H479.103C476.024 95.8571 474.484 97.4762 474.484 100.714V121.286C474.484 124.524 476.024 126.143 479.103 126.143H491.804V109.286H497V131H477.948C475.331 131 473.233 130.219 471.655 128.657C470.077 127.095 469.288 125.019 469.288 122.429Z" fill="#3C79F5"/>
<path d="M269.835 131V117.286L258 93.5714V91H262.561L272.433 111.857H272.722L282.305 91H286.866V93.5714L275.031 117.286V131H269.835Z" stroke="#3C79F5" stroke-width="1.5"/>
<path d="M295.439 131V91H319.976V94.4286L318.532 95.8571H300.635V108.143H314.491V113H300.635V126.143H319.976V131H295.439Z" stroke="#3C79F5" stroke-width="1.5"/>
<path d="M329.401 131V91H334.886L353.36 122.143H353.649L353.072 115V91H358.268V131H352.783L334.309 99.8571H334.02L334.597 107V131H329.401Z" stroke="#3C79F5" stroke-width="1.5"/>
<path d="M370.862 131V91H390.491C393.108 91 395.206 91.781 396.784 93.3429C398.362 94.9048 399.151 96.981 399.151 99.5714V122.429C399.151 125.019 398.362 127.095 396.784 128.657C395.206 130.219 393.108 131 390.491 131H370.862ZM376.058 126.143H389.336C392.415 126.143 393.955 124.524 393.955 121.286V100.714C393.955 97.4762 392.415 95.8571 389.336 95.8571H376.058V126.143Z" stroke="#3C79F5" stroke-width="1.5"/>
<path d="M410.913 131V91H416.109V131H410.913Z" stroke="#3C79F5" stroke-width="1.5"/>
<path d="M428.694 131V91H434.179L452.653 122.143H452.942L452.364 115V91H457.56V131H452.076L433.601 99.8571H433.313L433.89 107V131H428.694Z" stroke="#3C79F5" stroke-width="1.5"/>
<path d="M469.288 122.429V99.5714C469.288 96.981 470.077 94.9048 471.655 93.3429C473.233 91.781 475.331 91 477.948 91H495.268V94.4286L493.825 95.8571H479.103C476.024 95.8571 474.484 97.4762 474.484 100.714V121.286C474.484 124.524 476.024 126.143 479.103 126.143H491.804V109.286H497V131H477.948C475.331 131 473.233 130.219 471.655 128.657C470.077 127.095 469.288 125.019 469.288 122.429Z" stroke="#3C79F5" stroke-width="1.5"/>
<path d="M194.303 105.811C195.114 99.9293 194.543 93.9401 192.636 88.3177C189.105 78.0464 170.806 64.5119 170.806 64.5119C170.806 64.5119 175.088 56.7531 182.942 62.268C193.411 69.6239 197.1 95.4524 197.954 102.437C197.965 102.501 197.998 102.56 198.048 102.602C198.098 102.644 198.161 102.667 198.226 102.667C198.292 102.667 198.355 102.644 198.405 102.602C198.454 102.56 198.488 102.501 198.499 102.437C199.589 96.3531 202.078 75.6761 189.729 58.7441C177.806 42.389 161.143 64.82 161.143 64.82L160.187 65.942L159.8 65.1519C159.8 65.1519 156.078 57.8197 142.536 57.8434C131.474 57.6143 122.333 61.4147 114.211 64.9543C114.211 64.9543 107.226 40.5954 139.494 52.9448C135.614 49.8792 125.564 44.459 118.762 45.0437C98.5981 46.7582 109.067 72.6184 109.067 72.6184C101.866 75.1644 95.923 80.3883 92.4748 87.2037C87.8842 96.5427 87.2917 106.664 86.8492 110.156C86.7465 110.961 86.6911 111.771 86.6833 112.582C86.6833 112.582 76.9413 112.463 77.9921 102.927C79.438 90.214 100.305 74.6252 106.08 70.5325C106.135 70.4947 106.175 70.4383 106.191 70.3737C106.208 70.3091 106.201 70.2407 106.171 70.1811C106.141 70.1215 106.091 70.0746 106.029 70.0492C105.967 70.0237 105.899 70.0214 105.835 70.0426C99.9728 72.0021 80.639 79.7214 71.6871 98.6681C62.996 116.967 90.7128 120.854 90.7128 120.854C89.9024 126.735 90.4704 132.724 92.3721 138.347C95.9038 148.619 114.203 162.145 114.203 162.145C114.203 162.145 109.92 169.912 102.075 164.397C91.6057 157.041 87.9159 131.252 87.0626 124.22C87.0516 124.156 87.0182 124.097 86.9683 124.055C86.9184 124.013 86.8552 123.99 86.79 123.99C86.7247 123.99 86.6615 124.013 86.6116 124.055C86.5617 124.097 86.5284 124.156 86.5174 124.22C85.427 130.304 82.9461 150.981 95.2875 167.913C107.21 184.268 123.881 161.837 123.881 161.837L124.83 160.715L125.225 161.505C125.225 161.505 128.946 168.837 142.488 168.814C153.55 169.043 162.683 165.234 170.806 161.703C170.806 161.703 177.798 186.062 145.522 173.712C149.41 176.778 159.452 182.19 166.255 181.613C186.418 179.907 175.957 154.047 175.957 154.047C183.162 151.501 189.105 146.274 192.549 139.453C197.148 130.122 197.732 119.993 198.175 116.501C198.278 115.699 198.333 114.892 198.341 114.083C198.341 114.083 208.083 114.194 207.032 123.73C205.586 136.443 184.719 152.032 178.944 156.125C178.889 156.162 178.849 156.219 178.833 156.283C178.816 156.348 178.824 156.416 178.853 156.476C178.883 156.536 178.934 156.582 178.995 156.608C179.057 156.633 179.126 156.636 179.189 156.614C185.051 154.655 204.393 146.936 213.345 127.989C222.012 109.698 194.303 105.811 194.303 105.811ZM168.799 67.5064C168.799 67.5064 185.62 83.427 188.006 95.5709C189.349 102.397 185.304 105.052 181.512 106C178.833 106.696 171.485 105.439 168.815 104.744L159.934 102.437C160.827 80.4957 168.799 67.5064 168.799 67.5064ZM89.5672 112.843C89.5672 112.843 95.0979 90.3483 104.484 82.2813C106.791 80.2982 108.909 79.6029 110.805 79.6898C111.843 79.7382 112.859 80.0076 113.784 80.4799C114.463 80.8297 115.102 81.2537 115.688 81.7441C116.071 82.0626 116.437 82.4001 116.786 82.7554C117.061 83.0549 117.309 83.3774 117.529 83.7193C117.782 84.1065 118.043 84.549 118.319 85.0388C118.446 85.2838 118.58 85.5366 118.706 85.8289C118.912 86.2477 119.117 86.6822 119.315 87.1326L119.575 87.7331C120.435 89.7449 121.184 91.8022 121.819 93.8959L121.977 94.4411L124.348 103.298C122.522 104.246 120.729 105.092 118.983 105.858C116.652 106.877 114.408 107.754 112.267 108.497C111.192 108.868 110.149 109.216 109.106 109.524C108.593 109.682 108.095 109.832 107.605 109.967C106.618 110.251 105.662 110.512 104.737 110.757C103.813 111.002 102.928 111.191 102.075 111.373C97.9728 112.325 93.7779 112.818 89.5672 112.843ZM116.209 159.222C116.209 159.222 99.3803 143.301 97.0021 131.165C95.6589 124.331 99.7042 121.684 103.497 120.728C106.167 120.033 113.515 121.297 116.194 121.984L125.074 124.283C124.182 146.24 116.209 159.222 116.209 159.222ZM116.565 66.8822C116.565 66.8822 132.746 62.0705 142.504 63.2398C145.092 63.4897 147.632 64.1014 150.05 65.0571C156.615 67.38 156.813 72.168 155.723 75.9605C155.526 76.5781 155.261 77.1717 154.933 77.7304C154.672 78.1728 154.379 78.639 154.048 79.1288C153.716 79.6187 153.36 80.1165 152.989 80.6142C152.618 81.112 152.199 81.6176 151.835 82.1075C150.694 83.5477 149.481 84.9295 148.201 86.2477L142.52 91.9443L142.141 92.292C123.684 80.3535 116.565 66.8822 116.565 66.8822ZM149.402 117.101L142.52 121.328L135.836 117.71L135.622 109.643L142.496 105.424L149.173 109.042L149.402 117.101ZM142.504 163.496C139.914 163.246 137.371 162.635 134.951 161.679C128.393 159.356 128.195 154.568 129.278 150.776C129.47 150.156 129.736 149.562 130.068 149.006C130.321 148.563 130.621 148.089 130.945 147.607C131.269 147.125 131.632 146.62 132.004 146.114C132.375 145.608 132.794 145.11 133.165 144.621C134.306 143.182 135.519 141.803 136.8 140.488L142.48 134.792L142.852 134.444C161.293 146.383 168.412 159.854 168.412 159.854C168.412 159.854 152.254 164.666 142.504 163.496ZM180.516 144.455C178.209 146.438 176.092 147.125 174.195 147.038C173.157 146.99 172.142 146.721 171.217 146.248C170.538 145.897 169.9 145.473 169.312 144.984C168.93 144.665 168.566 144.324 168.222 143.965C167.929 143.672 167.664 143.352 167.432 143.009C167.179 142.622 166.918 142.171 166.642 141.681C166.515 141.444 166.389 141.184 166.255 140.891C166.049 140.473 165.852 140.03 165.646 139.58L165.386 138.987C164.529 136.974 163.78 134.917 163.142 132.824C163.086 132.627 163.031 132.445 162.992 132.271L160.621 123.422C162.454 122.474 164.248 121.629 165.994 120.862C168.317 119.835 170.569 118.966 172.71 118.215C173.763 117.841 174.817 117.502 175.87 117.196L177.371 116.746C178.351 116.461 179.307 116.208 180.232 115.956C181.156 115.703 182.049 115.521 182.902 115.339C187.003 114.381 191.198 113.883 195.41 113.854C195.41 113.854 189.903 136.411 180.516 144.455Z" fill="#3C79F5"/>
</g>
<defs>
<clipPath id="clip0_65_371">
<rect width="584" height="226" fill="white"/>
</clipPath>
</defs>
</svg>
